<?xml version="1.0" encoding="UTF-8" standalone="no"?>
<svg width="56px" height="58px" viewBox="0 0 56 58" version="1.1" xmlns="http://www.w3.org/2000/svg" xmlns:xlink="http://www.w3.org/1999/xlink" xmlns:sketch="http://www.bohemiancoding.com/sketch/ns">
    <!-- Generator: Sketch 3.5.2 (25235) - http://www.bohemiancoding.com/sketch -->
    <title>Rectangle 11 + Page 1</title>
    <desc>Created with Sketch.</desc>
    <defs>
        <path id="path-1" d="M0,1.06582006 L55.9312997,1.06582006 L55.9312997,58.9937304 L0,58.9937304"></path>
        <path id="path-3" d="M0,1.06582006 L55.9312997,1.06582006 L55.9312997,58.9937304 L0,58.9937304"></path>
    </defs>
    <g id="Page-1" stroke="none" stroke-width="1" fill="none" fill-rule="evenodd" sketch:type="MSPage">
        <g id="System-1" sketch:type="MSArtboardGroup" transform="translate(-496.000000, -171.000000)">
            <g id="Group-19" sketch:type="MSLayerGroup" transform="translate(307.000000, 127.000000)">
                <g id="Rectangle-11-+-Page-1" transform="translate(189.000000, 43.000000)">
                    <g id="Page-1">
                        <g id="Group-3">
                            <mask id="mask-2" sketch:name="Clip 2" fill="white">
                                <use xlink:href="#path-1"></use>
                            </mask>
                            <g id="Clip-2"></g>
                            <path d="M40.0742408,48.198271 C39.8738195,47.7735162 39.6458894,47.4313525 39.3943803,47.1993105 C35.5785157,43.6872171 30.2025089,42.1317491 26.117451,38.9814839 C25.8600472,38.7828717 25.5122572,38.5940917 25.3413096,38.3050224 C24.0955537,36.1950134 27.4339439,34.3150798 28.5087523,33.0585134 C30.2634212,31.007498 31.2439137,28.3665453 31.2439137,25.6665989 C31.2439137,19.3523033 26.0997668,14.233614 19.7550569,14.233614 C13.4083821,14.233614 8.26620006,19.3523033 8.26620006,25.6665989 C8.26620006,28.0774761 9.04234141,30.449024 10.4688695,32.3918842 C11.1683792,33.3475826 12.0408014,34.2718177 13.0330834,34.9286146 C14.0882426,35.6267071 16.4029122,36.8124811 15.3772267,38.5508297 C14.2886639,40.391434 10.4020624,41.7207594 8.6297093,42.7197199 C6.52135572,43.9094268 4.24401947,44.8592259 2.31643805,46.3498008 C0.603032351,47.6732268 0.137347544,48.7665773 0.0332070601,50.8529889 C-0.0591439354,52.7407883 -0.165249334,58.9941237 2.83910539,58.9941237 L20.3602506,58.9941237 L37.879431,58.9941237 C41.5027339,58.9921572 41.5577515,51.3465698 40.0742408,48.198271" id="Fill-1" fill-opacity="0.700000048" fill="#293542" sketch:type="MSShapeGroup" mask="url(#mask-2)"></path>
                        </g>
                        <g id="Group-6">
                            <mask id="mask-4" sketch:name="Clip 5" fill="white">
                                <use xlink:href="#path-3"></use>
                            </mask>
                            <g id="Clip-5"></g>
                            <path d="M27.1136628,11.2149048 C27.1136628,11.2149048 35.9145162,16.0602565 35.9145162,24.9093161 C35.9145162,33.7583756 30.7566148,37.2803013 30.7566148,37.2803013 C30.7566148,37.2803013 32.967144,39.9841807 35.5058139,40.0667719 C38.0425189,40.1493631 51.6338345,40.0667719 51.6338345,40.0667719 C51.6338345,40.0667719 55.4831026,38.8377358 55.8918049,35.6422421 C56.3005072,32.4467484 53.5181878,28.8422314 48.9320767,27.2022057 C44.3479305,25.5641465 41.7483482,24.4177017 41.7483482,22.8602672 C41.7483482,21.3028327 47.3778291,20.8092518 47.3778291,11.1401794 C47.3778291,4.58597596 41.9723485,1.06601671 37.7969045,1.06601671 C33.6234255,1.06601671 27.9723306,4.19071796 27.1136628,11.2149048" id="Fill-4" fill-opacity="0.700000048" fill="#293542" sketch:type="MSShapeGroup" mask="url(#mask-4)"></path>
                        </g>
                    </g>
                </g>
            </g>
        </g>
    </g>
</svg>