<?xml version="1.0" encoding="UTF-8" standalone="no"?>
<svg width="59px" height="59px" viewBox="0 0 59 59" version="1.1" xmlns="http://www.w3.org/2000/svg" xmlns:xlink="http://www.w3.org/1999/xlink" xmlns:sketch="http://www.bohemiancoding.com/sketch/ns">
    <!-- Generator: Sketch 3.5.2 (25235) - http://www.bohemiancoding.com/sketch -->
    <title>Page 1</title>
    <desc>Created with Sketch.</desc>
    <defs>
        <path id="path-1" d="M0,0.444 L58.556,0.444 L58.556,59 L0,59"></path>
    </defs>
    <g id="Page-1" stroke="none" stroke-width="1" fill="none" fill-rule="evenodd" sketch:type="MSPage">
        <g id="System-1" sketch:type="MSArtboardGroup" transform="translate(-942.000000, -170.000000)">
            <g id="Group-9" sketch:type="MSLayerGroup" transform="translate(766.000000, 127.000000)">
                <g id="Page-1" transform="translate(176.000000, 43.000000)">
                    <g id="Group-3">
                        <mask id="mask-2" sketch:name="Clip 2" fill="white">
                            <use xlink:href="#path-1"></use>
                        </mask>
                        <g id="Clip-2"></g>
                        <path d="M29.2778,3.4443 C14.7878,3.4443 2.9998,15.2323 2.9998,29.7223 C2.9998,44.2123 14.7878,56.0003 29.2778,56.0003 C43.7678,56.0003 55.5558,44.2123 55.5558,29.7223 C55.5558,15.2323 43.7678,3.4443 29.2778,3.4443 M29.2778,59.0003 C13.1338,59.0003 -0.0002,45.8663 -0.0002,29.7223 C-0.0002,13.5783 13.1338,0.4443 29.2778,0.4443 C45.4218,0.4443 58.5558,13.5783 58.5558,29.7223 C58.5558,45.8663 45.4218,59.0003 29.2778,59.0003" id="Fill-1" fill="#69717A" sketch:type="MSShapeGroup" mask="url(#mask-2)"></path>
                    </g>
                    <path d="M29.2778,11.8115 C19.4018,11.8115 11.3668,19.8465 11.3668,29.7225 C11.3668,39.5985 19.4018,47.6325 29.2778,47.6325 C39.1538,47.6325 47.1888,39.5985 47.1888,29.7225 C47.1888,19.8465 39.1538,11.8115 29.2778,11.8115 M29.2778,50.6325 C17.7478,50.6325 8.3668,41.2525 8.3668,29.7225 C8.3668,18.1915 17.7478,8.8115 29.2778,8.8115 C40.8078,8.8115 50.1888,18.1915 50.1888,29.7225 C50.1888,41.2525 40.8078,50.6325 29.2778,50.6325" id="Fill-4" fill="#69717A" sketch:type="MSShapeGroup"></path>
                    <path d="M29.6486,18.3395 L33.3166,25.7725 L41.5196,26.9645 L35.5846,32.7505 L36.9856,40.9195 L29.6486,37.0625 L22.3116,40.9195 L23.7126,32.7505 L17.7776,26.9645 L25.9806,25.7725 L29.6486,18.3395 Z" id="Fill-6" fill="#69717A" sketch:type="MSShapeGroup"></path>
                </g>
            </g>
        </g>
    </g>
</svg>