<?xml version="1.0" encoding="UTF-8" standalone="no"?>
<svg width="55px" height="51px" viewBox="0 0 55 51" version="1.1" xmlns="http://www.w3.org/2000/svg" xmlns:xlink="http://www.w3.org/1999/xlink" xmlns:sketch="http://www.bohemiancoding.com/sketch/ns">
    <!-- Generator: Sketch 3.5.2 (25235) - http://www.bohemiancoding.com/sketch -->
    <title>Page 1</title>
    <desc>Created with Sketch.</desc>
    <defs>
        <path id="path-1" d="M0,1.16547619 L54.0794048,1.16547619 L54.0794048,51.0714286 L0,51.0714286 L0,1.16547619 Z"></path>
    </defs>
    <g id="Page-1" stroke="none" stroke-width="1" fill="none" fill-rule="evenodd" sketch:type="MSPage">
        <g id="System-1" sketch:type="MSArtboardGroup" transform="translate(-1411.000000, -176.000000)">
            <g id="Group-20" sketch:type="MSLayerGroup" transform="translate(1225.000000, 127.000000)">
                <g id="Page-1" transform="translate(186.000000, 48.000000)">
                    <mask id="mask-2" sketch:name="Clip 2" fill="white">
                        <use xlink:href="#path-1"></use>
                    </mask>
                    <g id="Clip-2"></g>
                    <path d="M45.754369,28.1565952 C45.7425833,29.2919524 46.6736548,30.2596905 47.7972262,30.2819524 C48.9194881,30.3055238 49.8924643,29.3639762 49.9160357,28.2351667 C49.9396071,27.1076667 48.9980595,26.1294524 47.8744881,26.1150476 C46.74175,26.0993333 45.7648452,27.0395714 45.754369,28.1565952 L45.754369,28.1565952 Z M12.5173452,46.8932619 L41.569131,46.8932619 L41.569131,38.6131429 L12.5173452,38.6131429 L12.5173452,46.8932619 Z M41.5756786,13.6837381 C41.5023452,13.6614762 41.4696071,13.6431429 41.4381786,13.6431429 C39.8261548,13.6405238 38.2154405,13.6431429 36.6034167,13.6339762 C34.5802024,13.6248095 33.2890119,12.3349286 33.2811548,10.3156429 C33.2746071,8.80838095 33.2798452,7.30111905 33.2785357,5.79385714 C33.2785357,5.64457143 33.2615119,5.49528571 33.2536548,5.35516667 L12.5212738,5.35516667 L12.5212738,26.0927857 L41.5756786,26.0927857 L41.5756786,13.6837381 Z M8.32294048,42.7512381 L2.23365476,42.7512381 C1.88663095,42.7512381 1.53960714,42.7590952 1.19389286,42.7499286 C0.410797619,42.7302857 0.00877380952,42.3112381 0.0061547619,41.4914762 C-0.000392857143,39.6371905 0.00353571429,37.7829048 0.00353571429,35.9299286 C0.00353571429,33.3815952 -0.00694047619,30.8345714 0.00746428571,28.2875476 C0.0244880952,25.286119 1.9665119,22.7626667 4.84615476,22.1485 C5.84663095,21.9337381 6.91127381,22.0175476 7.94579762,21.9638571 C8.04794048,21.958619 8.15008333,21.9520714 8.32294048,21.9429048 L8.32294048,21.2750476 C8.32294048,15.7305238 8.32163095,10.186 8.32425,4.64016667 C8.32425,2.40611905 9.5669881,1.16730952 11.8023452,1.16730952 C18.8030595,1.16730952 25.8037738,1.17254762 32.8044881,1.16469048 C35.0188929,1.16207143 36.976631,1.86921429 38.5755595,3.37516667 C40.3407976,5.03695238 42.0654405,6.7485 43.7062738,8.53338095 C45.0734167,10.021 45.7386548,11.8582619 45.7504405,13.895881 C45.7635357,16.3735 45.7530595,18.851119 45.7530595,21.3287381 L45.7530595,21.9651667 L47.6387738,21.9651667 C50.4044881,21.9612381 52.3805595,23.2576667 53.5250833,25.726119 C53.8825833,26.4987381 54.0384167,27.4298095 54.0488929,28.2901667 C54.0999643,32.6744524 54.0737738,37.0587381 54.0698452,41.4417143 C54.0698452,42.3714762 53.6756786,42.7499286 52.7236548,42.7512381 C50.6100833,42.7525476 48.4952024,42.7512381 46.381631,42.7512381 L45.781869,42.7512381 C45.7700833,42.9345714 45.754369,43.0838571 45.754369,43.2331429 C45.75175,44.7404048 45.7596071,46.2476667 45.75175,47.7562381 C45.7412738,49.7729048 44.4422262,51.0680238 42.4229405,51.0693333 C32.1824643,51.0719524 21.9419881,51.0719524 11.7002024,51.0693333 C9.60889286,51.0693333 8.3294881,49.7873095 8.32425,47.7012381 C8.32032143,46.0748095 8.32294048,44.448381 8.32294048,42.7512381 L8.32294048,42.7512381 Z" id="Fill-1" fill="#69717A" sketch:type="MSShapeGroup" mask="url(#mask-2)"></path>
                </g>
            </g>
        </g>
    </g>
</svg>