<?xml version="1.0" encoding="UTF-8" standalone="no"?>
<svg width="13px" height="15px" viewBox="0 0 13 15" version="1.1" xmlns="http://www.w3.org/2000/svg" xmlns:xlink="http://www.w3.org/1999/xlink" xmlns:sketch="http://www.bohemiancoding.com/sketch/ns">
    <!-- Generator: Sketch 3.5.2 (25235) - http://www.bohemiancoding.com/sketch -->
    <title>Documents</title>
    <desc>Created with Sketch.</desc>
    <defs></defs>
    <g id="Page-1" stroke="none" stroke-width="1" fill="none" fill-rule="evenodd" sketch:type="MSPage">
        <g id="Artboard-1" sketch:type="MSArtboardGroup" transform="translate(-82.000000, -81.000000)" fill="#FFFFFF">
            <g id="Documents" sketch:type="MSLayerGroup" transform="translate(82.000000, 81.000000)">
                <path d="M7.58319828,0 L0.928855333,0 C0.317528574,0 0.000932029157,0.311546072 0.000932029157,0.913699744 C0.000932029157,3.96726542 0.00232775235,12.7892654 1.54702786e-06,14.1463546 C-0.000463694037,14.4392631 0.103982925,14.676259 0.344279935,14.8508997 C0.51246458,14.9730791 0.705539622,15 0.908384726,15 C4.64101379,14.9990796 8.37364285,14.9993097 12.1065045,14.9993097 C12.6694462,14.9993097 12.9995348,14.6751085 12.9995348,14.1201239 C13,11.2492522 13,5.35794818 13,5.35794818 C13,5.35794818 9.93126994,5.35817828 8.48692905,5.35771809 C7.90584296,5.35771809 7.5834309,5.03719839 7.58319828,4.46081514 L7.58319828,0 Z" id="Fill-1" sketch:type="MSShapeGroup"></path>
                <path d="M9,0 L9,4 L13,4 L9,0 Z" id="Fill-4" sketch:type="MSShapeGroup"></path>
            </g>
        </g>
    </g>
</svg>