<?xml version="1.0" encoding="UTF-8" standalone="no"?>
<svg width="52px" height="49px" viewBox="0 0 52 49" version="1.1" xmlns="http://www.w3.org/2000/svg" xmlns:xlink="http://www.w3.org/1999/xlink" xmlns:sketch="http://www.bohemiancoding.com/sketch/ns">
    <!-- Generator: Sketch 3.5.2 (25235) - http://www.bohemiancoding.com/sketch -->
    <title>Shape</title>
    <desc>Created with Sketch.</desc>
    <defs></defs>
    <g id="Page-1" stroke="none" stroke-width="1" fill="none" fill-rule="evenodd" sketch:type="MSPage">
        <g id="System-1" sketch:type="MSArtboardGroup" transform="translate(-493.000000, -450.000000)" fill="#69717A">
            <g id="Group-21" sketch:type="MSLayerGroup" transform="translate(305.000000, 401.000000)">
                <path d="M236.77925,58.72075 C234.9755,58.98075 233.49675,57.70025 233.49675,55.87375 L233.49675,55.00925 C233.49675,53.35825 232.2585,52.13625 230.666,52.13625 C230.55225,52.13625 230.4385,52.14275 230.31825,52.15575 C230.29875,52.16225 230.27275,52.16225 230.25325,52.16225 L210.72075,54.60625 C208.943,54.82725 207.49675,53.54675 207.49675,51.75925 C207.49675,50.1505 206.33,49 204.81225,49 C204.64,49 204.471,49.013 204.29225,49.0455 L191.2045,51.22625 C189.43975,51.522 188,53.22175 188,55.00925 L188,84.25925 C188,87.8375 190.07025,92.82625 192.5955,95.358 L193.3495,96.10875 C193.97675,96.73925 195.2215,97.152 196.1055,97.02525 L238.388,90.99 C239.27525,90.86325 240,90.028 240,89.13425 L240,61.50925 C239.99675,59.725 238.5505,58.46725 236.77925,58.72075 L236.77925,58.72075 Z M230.24675,59.6535 L196.10225,64.53175 C195.2215,64.6585 194.49675,65.49375 194.49675,66.38425 L194.49675,86.54725 L191.24675,87.012 L191.24675,55.00925 C191.24675,54.80775 191.53925,54.4665 191.73425,54.43075 L204.24675,52.34425 L204.24675,56.84875 C204.24675,57.31675 204.445,57.75875 204.79275,58.06425 C205.147,58.37625 205.61175,58.5225 206.0765,58.46075 L207.89975,58.23325 L228.638,55.643 C229.52525,55.5325 230.25,56.17275 230.25,57.0665 L230.25,59.6535 L230.24675,59.6535 Z" id="Shape" sketch:type="MSShapeGroup"></path>
            </g>
        </g>
    </g>
</svg>