<?xml version="1.0" encoding="UTF-8" standalone="no"?>
<svg width="37px" height="37px" viewBox="0 0 37 37" version="1.1" xmlns="http://www.w3.org/2000/svg" xmlns:xlink="http://www.w3.org/1999/xlink" xmlns:sketch="http://www.bohemiancoding.com/sketch/ns">
    <!-- Generator: Sketch 3.5.2 (25235) - http://www.bohemiancoding.com/sketch -->
    <title>Page 1</title>
    <desc>Created with Sketch.</desc>
    <defs>
        <path id="path-1" d="M0,0.151918403 L36.7514063,0.151918403 L36.7514063,36.5075231 L0,36.5075231"></path>
    </defs>
    <g id="Page-1" stroke="none" stroke-width="1" fill="none" fill-rule="evenodd" sketch:type="MSPage">
        <g id="Order-item-types-1" sketch:type="MSArtboardGroup" transform="translate(-307.000000, -33.000000)">
            <g id="Page-1" sketch:type="MSLayerGroup" transform="translate(307.000000, 33.000000)">
                <path d="M18.2723344,19.0459748 C17.8028969,18.8657925 17.3554281,18.7268284 16.9368656,18.5278035 C11.7025219,16.03116 6.46239688,13.5451155 1.25117813,10.9966548 C0.711209375,10.7328585 0.018615625,10.100454 0.001271875,9.6164349 C-0.014915625,9.13948177 0.639521875,8.4375952 1.16561563,8.17262124 C6.19183438,5.63358189 11.2596781,3.18168953 16.2986156,0.668558738 C17.6687719,-0.0156629051 18.9498969,-0.0227288773 20.3235219,0.662670428 C25.3613031,3.17815654 30.4303031,5.62887124 35.4565219,8.16673293 C35.9837719,8.43288455 36.6451469,9.12534983 36.6324281,9.60465828 C36.6208656,10.086322 35.9317406,10.7305032 35.3940844,10.9931218 C30.1447094,13.5592474 24.8664281,16.0629569 19.5904594,18.5737323 C19.1742094,18.7727572 18.7209594,18.8881681 18.2723344,19.0459748" id="Fill-1" fill="#69717A" sketch:type="MSShapeGroup"></path>
                <g id="Group-5">
                    <mask id="mask-2" sketch:name="Clip 4" fill="white">
                        <use xlink:href="#path-1"></use>
                    </mask>
                    <g id="Clip-4"></g>
                    <path d="M18.2606563,27.7592607 C17.6177813,27.5355049 16.950625,27.3753429 16.3482188,27.0809274 C11.2861563,24.6078371 6.22525,22.1312138 1.1955625,19.5921745 C0.6636875,19.3236675 -0.00346875,18.6465119 7.46347411e-14,18.1636704 C0.00346875,17.687895 0.71571875,17.1237948 1.22909375,16.7622526 C2.66284375,15.7541739 4.06421875,15.8778284 5.63209375,16.7210344 C9.16675,18.621781 12.8043125,20.3235026 16.3840625,22.1371021 C17.7102813,22.8083695 18.9682813,22.7895269 20.289875,22.1206149 C24.137875,20.1727619 28.0032188,18.262594 31.8627813,16.3406496 C33.0618125,15.7447526 35.5963125,16.3312283 36.412625,17.3840582 C37.0901875,18.2602387 36.7329063,19.2565408 35.5015,19.8453718 C32.3854063,21.3386473 29.2612188,22.8166131 26.1416563,24.3040003 C24.137875,25.2590842 22.1456563,26.238899 20.1303125,27.1668967 C19.5579688,27.430693 18.9243438,27.5531698 18.2606563,27.7592607" id="Fill-3" fill="#69717A" sketch:type="MSShapeGroup" mask="url(#mask-2)"></path>
                </g>
                <path d="M18.3089875,36.5075231 C17.8430187,36.3355845 17.43255,36.2189959 17.0533,36.037636 C11.776175,33.5233275 6.494425,31.0184404 1.2427375,28.4511372 C0.703925,28.1885185 -0.0522625,27.4807436 0.0032375,27.0815162 C0.08070625,26.528015 0.77214375,25.9910012 1.30401875,25.5905961 C2.71464375,24.5295226 4.06745625,24.7261921 5.63533125,25.5482002 C9.33764375,27.4878096 13.1613625,29.1824653 16.9168625,31.0184404 C17.8823312,31.4895052 18.7391125,31.4965712 19.70805,31.023151 C23.8081125,29.0175926 27.9289875,27.0591406 32.0463937,25.088912 C33.0962687,24.587228 35.84005,25.360952 36.4968,26.3289902 C37.0275187,27.1109578 36.6875812,27.8835041 35.5348,28.4358275 C32.4187062,29.9279253 29.2945187,31.4047135 26.1761125,32.890923 C24.01855,33.9201997 21.867925,34.9612529 19.7068937,35.9811082 C19.2513312,36.1954427 18.7622375,36.3391175 18.3089875,36.5075231" id="Fill-6" fill="#69717A" sketch:type="MSShapeGroup"></path>
            </g>
        </g>
    </g>
</svg>