<?xml version="1.0" encoding="UTF-8" standalone="no"?>
<svg width="31px" height="31px" viewBox="0 0 31 31" version="1.1" xmlns="http://www.w3.org/2000/svg" xmlns:xlink="http://www.w3.org/1999/xlink" xmlns:sketch="http://www.bohemiancoding.com/sketch/ns">
    <!-- Generator: Sketch 3.5.2 (25235) - http://www.bohemiancoding.com/sketch -->
    <title>Page 1 Copy</title>
    <desc>Created with Sketch.</desc>
    <defs>
        <path id="path-1" d="M0,0.127282986 L30.7917188,0.127282986 L30.7917188,30.5873843 L0,30.5873843"></path>
    </defs>
    <g id="Page-1" stroke="none" stroke-width="1" fill="none" fill-rule="evenodd" sketch:type="MSPage">
        <g id="Page-1-Copy" sketch:type="MSLayerGroup">
            <path d="M15.3092531,15.9574384 C14.9159406,15.8064748 14.5410344,15.6900454 14.1903469,15.5232948 C9.80481562,13.4315124 5.41444062,11.3486102 1.04828437,9.21341348 C0.595878125,8.99239497 0.015596875,8.46254253 0.001065625,8.05701302 C-0.012496875,7.65740365 0.535815625,7.06933652 0.976596875,6.84733131 C5.18775312,4.72002807 9.43378437,2.66573987 13.6555969,0.560143808 C14.8035656,-0.0131229745 15.8769406,-0.0190431134 17.0278156,0.555210359 C21.2486594,2.6627798 25.4956594,4.71608131 29.7068156,6.84239786 C30.1485656,7.06538976 30.7026906,7.64556337 30.6920344,8.04714612 C30.6823469,8.45070226 30.1049719,8.99042159 29.6545031,9.21045341 C25.2563781,11.3604505 20.8340344,13.4581531 16.4136281,15.5617758 C16.0648781,15.7285263 15.6851281,15.8252219 15.3092531,15.9574384" id="Fill-1" fill="#69717A" sketch:type="MSShapeGroup"></path>
            <g id="Group-5">
                <mask id="mask-2" sketch:name="Clip 4" fill="white">
                    <use xlink:href="#path-1"></use>
                </mask>
                <g id="Clip-4"></g>
                <path d="M15.2994688,23.257759 C14.7608438,23.0702879 14.201875,22.9360981 13.6971563,22.6894256 C9.45596875,20.617377 5.21575,18.5423683 1.0016875,16.4150651 C0.5560625,16.1900998 -0.00290625,15.6227532 6.18116669e-14,15.2182104 C0.00290625,14.8195877 0.59965625,14.3469633 1.02978125,14.0440495 C2.23103125,13.199443 3.40515625,13.3030454 4.71878125,14.0095153 C7.68025,15.6020327 10.7279375,17.0277995 13.7271875,18.5473018 C14.8383438,19.109715 15.8923438,19.093928 16.999625,18.5334881 C20.223625,16.9015032 23.4621563,15.3010923 26.6958438,13.6908145 C27.7004375,13.1915495 29.8239375,13.682921 30.507875,14.5650217 C31.0755625,15.2991189 30.7762188,16.1338585 29.7445,16.6272034 C27.1337188,17.8783261 24.5161563,19.1166218 21.9024688,20.3628111 C20.223625,21.1630165 18.5544688,21.9839424 16.8659375,22.761454 C16.3864063,22.9824725 15.8555313,23.0850883 15.2994688,23.257759" id="Fill-3" fill="#69717A" sketch:type="MSShapeGroup" mask="url(#mask-2)"></path>
            </g>
            <path d="M15.3399625,30.5873843 C14.9495563,30.4433275 14.60565,30.3456453 14.2879,30.193695 C9.866525,28.0871123 5.441275,25.988423 1.0412125,23.8374392 C0.589775,23.6174074 -0.0437875,23.0244068 0.0027125,22.689919 C0.06761875,22.2261748 0.64693125,21.7762442 1.09255625,21.4407697 C2.27443125,20.5517622 3.40786875,20.7165394 4.72149375,21.4052488 C7.82343125,23.030327 11.0270875,24.4501736 14.1735875,25.988423 C14.9824938,26.383099 15.7003375,26.3890191 16.51215,25.9923698 C19.9473375,24.312037 23.3999625,22.6711719 26.8496813,21.0204398 C27.7293063,20.60011 30.02815,21.2483652 30.5784,22.0594242 C31.0230563,22.7145862 30.7382438,23.3618547 29.7724,23.8246123 C27.1616188,25.0747483 24.5440563,26.3120573 21.9313375,27.5572598 C20.12365,28.4196267 18.321775,29.2918605 16.5111813,30.1463339 C16.1294938,30.3259115 15.7197125,30.4462876 15.3399625,30.5873843" id="Fill-6" fill="#69717A" sketch:type="MSShapeGroup"></path>
        </g>
    </g>
</svg>