<?xml version="1.0" encoding="UTF-8" standalone="no"?>
<svg width="15px" height="12px" viewBox="0 0 15 12" version="1.1" xmlns="http://www.w3.org/2000/svg" xmlns:xlink="http://www.w3.org/1999/xlink" xmlns:sketch="http://www.bohemiancoding.com/sketch/ns">
    <!-- Generator: Sketch 3.5.2 (25235) - http://www.bohemiancoding.com/sketch -->
    <title>Group 3</title>
    <desc>Created with Sketch.</desc>
    <defs>
        <path id="path-1" d="M0,-5.844214e-13 L15,-5.844214e-13 L15,12 L0,12 L0,-5.844214e-13 Z"></path>
    </defs>
    <g id="Page-1" stroke="none" stroke-width="1" fill="none" fill-rule="evenodd" sketch:type="MSPage">
        <g id="System-1" sketch:type="MSArtboardGroup" transform="translate(-33.000000, -275.000000)">
            <g id="Group-3" sketch:type="MSLayerGroup" transform="translate(33.000000, 275.000000)">
                <mask id="mask-2" sketch:name="Clip 2" fill="white">
                    <use xlink:href="#path-1"></use>
                </mask>
                <g id="Clip-2"></g>
                <path d="M13.9999135,3 C13.9999135,2.43214373 14.0001635,1.87785433 13.9998135,1.32356493 C13.9996635,1.08957391 13.9097734,1.00011264 13.6737494,1.00011264 C9.55805207,0.999962453 5.44240475,0.999962453 1.32670744,1.00011264 C1.09053342,1.00011264 1.00034334,1.08957391 1.00019336,1.32306431 C0.999843394,1.84030763 0.999993377,2.35755095 1.00044333,2.87479428 C1.00044333,2.91504434 1.0042929,2.9552944 1.00659265,3 L13.9999135,3 Z M1.00004444,6 L1.00004444,6.1248565 C1.00004444,7.63373927 0.99994445,9.14262204 1.00004444,10.6515048 C1.00009444,10.9188258 1.08218686,10.9999625 1.35226193,10.9999625 C5.45153353,11.0000125 9.55085513,11.0000125 13.6501267,10.9999625 C13.918402,10.9999625 13.9998445,10.9186257 13.9998445,10.6489537 C14.0000444,9.14007088 13.9999944,7.63118811 13.9999944,6.12230534 L13.9999944,6 L1.00004444,6 Z M7.50614672,0.000158475817 C9.57264533,5.84569254e-05 11.6391439,-0.000141580858 13.7056926,0.000158475817 C14.4584967,0.000258494708 14.9997356,0.539760396 14.9997856,1.29005211 C15.0000356,4.42354396 15.0000856,7.55703582 14.9998356,10.6904777 C14.9997356,11.4663242 14.4643971,11.999925 13.6871912,11.999925 C9.5624946,12.000025 5.43779798,12.000025 1.31310135,11.999925 C0.535695446,11.999925 0.000156933224,11.4660742 0.000106929628,10.6908277 C-4.308116e-05,7.56568745 -4.308116e-05,4.44054717 0.000156933224,1.3154069 C0.00020693682,0.529808516 0.53129513,0.000308504154 1.31910178,0.000258494708 C3.3814501,0.000108466371 5.44379841,0.000208485263 7.50614672,0.000158475817 L7.50614672,0.000158475817 Z" id="Fill-1" fill="#FFFFFF" sketch:type="MSShapeGroup" mask="url(#mask-2)"></path>
            </g>
        </g>
    </g>
</svg>