<?xml version="1.0" encoding="UTF-8" standalone="no"?>
<svg width="16px" height="16px" viewBox="0 0 16 16" version="1.1" xmlns="http://www.w3.org/2000/svg" xmlns:xlink="http://www.w3.org/1999/xlink" xmlns:sketch="http://www.bohemiancoding.com/sketch/ns">
    <!-- Generator: Sketch 3.5.2 (25235) - http://www.bohemiancoding.com/sketch -->
    <title>Fill 3 + ?</title>
    <desc>Created with Sketch.</desc>
    <defs></defs>
    <g id="Page-1" stroke="none" stroke-width="1" fill="none" fill-rule="evenodd" sketch:type="MSPage">
        <g id="System-1" sketch:type="MSArtboardGroup" transform="translate(-33.000000, -373.000000)" fill="#FFFFFF">
            <g id="Fill-3-+-?" sketch:type="MSLayerGroup" transform="translate(33.000000, 373.000000)">
                <path d="M7.6875,2.125 C4.2755,2.125 1.5005,4.9 1.5005,8.312 C1.5005,11.725 4.2755,14.5 7.6875,14.5 C11.0995,14.5 13.8745,11.725 13.8745,8.312 C13.8745,4.9 11.0995,2.125 7.6875,2.125 M7.6875,16 C3.4485,16 0.0005,12.552 0.0005,8.312 C0.0005,4.073 3.4485,0.625 7.6875,0.625 C11.9265,0.625 15.3745,4.073 15.3745,8.312 C15.3745,12.552 11.9265,16 7.6875,16" id="Fill-3" fill-opacity="0.4" sketch:type="MSShapeGroup"></path>
                <text id="?" opacity="0.4" sketch:type="MSTextLayer" font-family="SF UI Text" font-size="11" font-weight="normal" line-spacing="14" letter-spacing="0.24444446">
                    <tspan x="5" y="12">?</tspan>
                </text>
            </g>
        </g>
    </g>
</svg>