<?xml version="1.0" encoding="UTF-8" standalone="no"?>
<svg width="56px" height="46px" viewBox="0 0 56 46" version="1.1" xmlns="http://www.w3.org/2000/svg" xmlns:xlink="http://www.w3.org/1999/xlink" xmlns:sketch="http://www.bohemiancoding.com/sketch/ns">
    <!-- Generator: Sketch 3.5.2 (25235) - http://www.bohemiancoding.com/sketch -->
    <title>Page 1</title>
    <desc>Created with Sketch.</desc>
    <defs>
        <path id="path-1" d="M0,0.671478261 L53.9326957,0.671478261 L53.9326957,43.0434783 L0,43.0434783"></path>
        <path id="path-3" d="M0,0.671478261 L53.9326957,0.671478261 L53.9326957,43.0434783 L0,43.0434783"></path>
        <path id="path-5" d="M0,0.671478261 L53.9326957,0.671478261 L53.9326957,43.0434783 L0,43.0434783"></path>
    </defs>
    <g id="Page-1" stroke="none" stroke-width="1" fill="none" fill-rule="evenodd" sketch:type="MSPage">
        <g id="System-1" sketch:type="MSArtboardGroup" transform="translate(-950.000000, -453.000000)">
            <g id="Page-1" sketch:type="MSLayerGroup" transform="translate(951.000000, 454.000000)">
                <path d="M35.5599513,0.674765217 C40.5429103,0.674765217 45.5258692,0.673982609 50.5096576,0.674765217 C52.7037522,0.675547826 53.9281317,1.82598261 53.9297907,3.8865913 C53.9314498,5.60363478 53.9314498,7.31989565 53.9297907,9.03693913 C53.9273022,11.037287 52.6838436,12.2213739 50.5801673,12.2213739 C40.5628189,12.2229391 30.5454705,12.2229391 20.528122,12.2213739 C18.4426953,12.2213739 17.1901119,11.0427652 17.1867938,9.07998261 C17.1834757,7.33085217 17.1843053,5.58172174 17.1859643,3.8325913 C17.1876234,1.84006957 18.4319114,0.675547826 20.559644,0.674765217 C25.560023,0.673982609 30.5595724,0.674765217 35.5599513,0.674765217" id="Fill-1" stroke="#FFFFFF" stroke-width="2" fill="#69717A" sketch:type="MSShapeGroup"></path>
                <g id="Group-5">
                    <mask id="mask-2" sketch:name="Clip 4" fill="white">
                        <use xlink:href="#path-1"></use>
                    </mask>
                    <g id="Clip-4"></g>
                    <path d="M35.5619422,27.6310174 L20.6122359,27.6310174 C18.3982327,27.6310174 17.1854666,26.4774522 17.1862961,24.3753652 C17.1862961,22.6426696 17.1821485,20.9099739 17.1871257,19.1772783 C17.1921028,17.2747565 18.4529814,16.0851913 20.4753642,16.0851913 C30.5267232,16.0828435 40.5780821,16.0828435 50.6294411,16.0851913 C52.6725621,16.0851913 53.9251454,17.2763217 53.929293,19.2164087 C53.9334407,20.9811913 53.9342702,22.7459739 53.929293,24.5107565 C53.9234863,26.439887 52.6592897,27.6294522 50.6136801,27.6302348 C45.5958811,27.6325826 40.5789117,27.6310174 35.5619422,27.6310174" id="Fill-3" stroke="#FFFFFF" stroke-width="2" fill="#69717A" sketch:type="MSShapeGroup" mask="url(#mask-2)"></path>
                </g>
                <path d="M35.5864962,31.4930348 C40.5694551,31.4930348 45.552414,31.4922522 50.5362024,31.4930348 C52.6929684,31.4938174 53.9256431,32.6520783 53.9297907,34.6813826 C53.9322793,36.4140783 53.9339384,38.1475565 53.9289612,39.8802522 C53.9248136,41.8696435 52.6738893,43.0396435 50.5536225,43.0396435 C40.5536941,43.0404261 30.5529362,43.0404261 20.5530078,43.0396435 C18.4352295,43.0396435 17.1892824,41.8672957 17.1859643,39.8724261 C17.1834757,38.1397304 17.1851348,36.4070348 17.1859643,34.6743391 C17.1876234,32.6497304 18.4219571,31.4938174 20.5861888,31.4930348 C25.5865678,31.4922522 30.5861172,31.4930348 35.5864962,31.4930348" id="Fill-6" stroke="#FFFFFF" stroke-width="2" fill="#69717A" sketch:type="MSShapeGroup"></path>
                <g id="Group-10">
                    <mask id="mask-4" sketch:name="Clip 9" fill="white">
                        <use xlink:href="#path-3"></use>
                    </mask>
                    <g id="Clip-9"></g>
                    <path d="M7.70086957,12.2219217 C6.17713043,12.2219217 4.6533913,12.2250522 3.12965217,12.2211391 C1.19426087,12.2164435 0.00782608696,11.0323565 0.00391304348,9.10166087 C1.01431884e-13,7.32122609 -0.000782608696,5.5407913 0.00391304348,3.76035652 C0.00939130435,1.88053043 1.19347826,0.681573913 3.06469565,0.676878261 C6.16069565,0.669052174 9.25669565,0.669834783 12.351913,0.676878261 C14.1949565,0.680791304 15.3946957,1.87661739 15.4056522,3.71966087 C15.4158261,5.54861739 15.4173913,7.3767913 15.4048696,9.20574783 C15.3915652,11.0112261 14.1785217,12.2109652 12.3683478,12.2203565 C10.8125217,12.2281826 9.25669565,12.2219217 7.70086957,12.2219217" id="Fill-8" stroke="#FFFFFF" stroke-width="2" fill="#69717A" sketch:type="MSShapeGroup" mask="url(#mask-4)"></path>
                </g>
                <path d="M7.71213913,27.6310174 C6.1884,27.6310174 4.66466087,27.6333652 3.14092174,27.6302348 C1.18126957,27.6263217 0.00500869565,26.4414522 0.00344347826,24.4739739 C0.00187826087,22.7099739 -0.000469565217,20.9451913 0.00422608696,19.1804087 C0.00813913043,17.2763217 1.1930087,16.0891043 3.1017913,16.0851913 C6.18135652,16.079713 9.26092174,16.079713 12.3412696,16.0851913 C14.1866609,16.0891043 15.3942261,17.2810174 15.4051826,19.1178 C15.4169217,20.9459739 15.4169217,22.7749304 15.4051826,24.603887 C15.3934435,26.4140609 14.1850957,27.6192783 12.3796174,27.6294522 C10.8237913,27.6380609 9.26796522,27.6310174 7.71213913,27.6310174" id="Fill-11" stroke="#FFFFFF" stroke-width="2" fill="#69717A" sketch:type="MSShapeGroup"></path>
                <g id="Group-15">
                    <mask id="mask-6" sketch:name="Clip 14" fill="white">
                        <use xlink:href="#path-5"></use>
                    </mask>
                    <g id="Clip-14"></g>
                    <path d="M7.74907826,31.4930348 C9.27281739,31.4930348 10.7965565,31.4891217 12.3202957,31.4938174 C14.1962087,31.4992957 15.3959478,32.6857304 15.4053391,34.5546 C15.4147304,36.3671217 15.4162957,38.1796435 15.4053391,39.9921652 C15.3943826,41.8320783 14.1883826,43.0341652 12.3523826,43.0380783 C9.25638261,43.0451217 6.16038261,43.0459043 3.06438261,43.0380783 C1.19942609,43.0333826 0.00986086957,41.8289478 0.0043826087,39.9514696 C-0.00187826087,38.1553826 -0.00109565217,36.358513 0.0043826087,34.5616435 C0.00986086957,32.6927739 1.20333913,31.5024261 3.0816,31.4946 C4.63742609,31.4875565 6.19325217,31.4930348 7.74907826,31.4930348" id="Fill-13" stroke="#FFFFFF" stroke-width="2" fill="#69717A" sketch:type="MSShapeGroup" mask="url(#mask-6)"></path>
                </g>
            </g>
        </g>
    </g>
</svg>