<?xml version="1.0" encoding="UTF-8" standalone="no"?>
<svg width="19px" height="11px" viewBox="0 0 19 11" version="1.1" xmlns="http://www.w3.org/2000/svg" xmlns:xlink="http://www.w3.org/1999/xlink" xmlns:sketch="http://www.bohemiancoding.com/sketch/ns">
    <!-- Generator: Sketch 3.5.2 (25235) - http://www.bohemiancoding.com/sketch -->
    <title>Group</title>
    <desc>Created with Sketch.</desc>
    <defs>
        <rect id="path-1" x="4" y="0" width="15" height="1.83333333" rx="0.5"></rect>
    </defs>
    <g id="Page-1" stroke="none" stroke-width="1" fill="none" fill-rule="evenodd" sketch:type="MSPage">
        <g id="Group" sketch:type="MSLayerGroup">
            <g id="Rectangle-1209-Copy-6">
                <use fill="#FFFFFF" fill-rule="evenodd" sketch:type="MSShapeGroup" xlink:href="#path-1"></use>
                <use fill="none" xlink:href="#path-1"></use>
            </g>
            <rect id="Rectangle-1209-Copy-7" fill="#FFFFFF" sketch:type="MSShapeGroup" x="4" y="4.58333333" width="13" height="1.83333333" rx="0.5"></rect>
            <rect id="Rectangle-1209-Copy-9" fill="#FFFFFF" sketch:type="MSShapeGroup" x="0" y="4.58333333" width="2" height="1.83333333" rx="0.5"></rect>
            <path d="M0,0.50096639 C0,0.224290293 0.222729996,0 0.509359877,0 L0.658762589,0 L1.50362082,0 C1.77776347,0 2,0.224802653 2,0.50096639 L2,1.33236694 C2,1.60904304 1.78596497,1.83333333 1.49531555,1.83333333 L0.504684448,1.83333333 C0.225954924,1.83333333 0,1.60853068 0,1.33236694 L0,0.50096639 Z" id="Rectangle-1209-Copy-10" fill="#FFFFFF" sketch:type="MSShapeGroup"></path>
            <rect id="Rectangle-1209-Copy-11" fill="#FFFFFF" sketch:type="MSShapeGroup" x="0" y="9.16666667" width="2" height="1.83333333" rx="0.5"></rect>
            <rect id="Rectangle-1209-Copy-8" fill="#FFFFFF" sketch:type="MSShapeGroup" x="4" y="9.16666667" width="15" height="1.83333333" rx="0.5"></rect>
        </g>
    </g>
</svg>