<?xml version="1.0" encoding="UTF-8" standalone="no"?>
<svg width="37px" height="55px" viewBox="0 0 37 55" version="1.1" xmlns="http://www.w3.org/2000/svg" xmlns:xlink="http://www.w3.org/1999/xlink" xmlns:sketch="http://www.bohemiancoding.com/sketch/ns">
    <!-- Generator: Sketch 3.5.2 (25235) - http://www.bohemiancoding.com/sketch -->
    <title>Page 1</title>
    <desc>Created with Sketch.</desc>
    <defs>
        <path id="path-1" d="M0,0.315137931 L36.3174138,0.315137931 L36.3174138,54.862069 L0,54.862069"></path>
    </defs>
    <g id="Page-1" stroke="none" stroke-width="1" fill="none" fill-rule="evenodd" sketch:type="MSPage">
        <g id="System-1" sketch:type="MSArtboardGroup" transform="translate(-1421.000000, -451.000000)">
            <g id="Group-17" sketch:type="MSLayerGroup" transform="translate(1225.000000, 403.000000)">
                <g id="Page-1" transform="translate(196.000000, 48.000000)">
                    <mask id="mask-2" sketch:name="Clip 2" fill="white">
                        <use xlink:href="#path-1"></use>
                    </mask>
                    <g id="Clip-2"></g>
                    <path d="M27.2198793,18.5579241 C27.2479483,13.5680276 23.2328103,9.51588966 18.2199483,9.47378621 C13.181569,9.43168276 9.11284483,13.4238552 9.06308621,18.457131 C9.01332759,23.5210276 13.014431,27.5897517 18.0898103,27.6356828 C23.1281897,27.6816138 27.1918103,23.6409586 27.2198793,18.5579241 M36.3103966,18.2210966 C36.398431,21.1606828 35.6507759,23.8667862 34.382569,26.5154759 C30.3163966,35.0063379 26.3484655,43.543131 22.3358793,52.0595103 C21.0242931,54.8447172 17.8257069,55.7301655 15.4245345,53.9120621 C14.8363621,53.4655103 14.3451552,52.7842 14.0223621,52.109269 C10.683431,45.1111655 7.38915517,38.0913724 4.08084483,31.0779586 C3.21963793,29.2522 2.38777586,27.4124069 1.48701724,25.6057862 C0.126948276,22.8754414 -0.157568966,19.9817862 0.0708103448,17.0000966 C0.428051724,12.3138552 2.38905172,8.39185517 5.84918966,5.2494069 C11.331569,0.268441379 17.7312931,-0.93342069 24.5469483,1.60554483 C31.0589483,4.03223448 34.9618103,8.94813103 36.0781897,15.9117862 C36.2006724,16.6747517 36.2351207,17.4517517 36.3103966,18.2210966" id="Fill-1" fill="#69717A" sketch:type="MSShapeGroup" mask="url(#mask-2)"></path>
                </g>
            </g>
        </g>
    </g>
</svg>