<?xml version="1.0" encoding="UTF-8" standalone="no"?>
<svg width="51px" height="55px" viewBox="0 0 51 55" version="1.1" xmlns="http://www.w3.org/2000/svg" xmlns:xlink="http://www.w3.org/1999/xlink" xmlns:sketch="http://www.bohemiancoding.com/sketch/ns">
    <!-- Generator: Sketch 3.5.2 (25235) - http://www.bohemiancoding.com/sketch -->
    <title>Page 1</title>
    <desc>Created with Sketch.</desc>
    <defs>
        <path id="path-1" d="M0,0.281659091 L50.1816818,0.281659091 L50.1816818,54.4772727 L0,54.4772727 L0,0.281659091 Z"></path>
    </defs>
    <g id="Page-1" stroke="none" stroke-width="1" fill="none" fill-rule="evenodd" sketch:type="MSPage">
        <g id="System-1" sketch:type="MSArtboardGroup" transform="translate(-496.000000, -726.000000)">
            <g id="Group-16" sketch:type="MSLayerGroup" transform="translate(307.000000, 680.000000)">
                <g id="Page-1" transform="translate(189.000000, 46.000000)">
                    <mask id="mask-2" sketch:name="Clip 2" fill="white">
                        <use xlink:href="#path-1"></use>
                    </mask>
                    <g id="Clip-2"></g>
                    <path d="M24.8161364,52.0424864 C25.1685,52.0598727 25.5347727,52.0703045 25.56375,51.5881227 C25.5927273,51.1036227 25.2426818,51.0862364 24.8787273,51.0653727 C22.6103864,50.9343955 20.8671136,49.1679409 20.74425,46.8694636 C20.7245455,46.4962364 20.64225,46.2180545 20.2064318,46.2458727 C19.7868409,46.2725318 19.7590227,46.5796909 19.7671364,46.9111909 C19.8320455,49.6443273 22.0806818,51.9312136 24.8161364,52.0424864 L24.8161364,52.0424864 Z M44.7188864,42.8393045 C44.5044545,42.5808273 44.3514545,42.3953727 44.1984545,42.2110773 C41.8814318,39.4350545 40.1914773,36.3089864 39.0068864,32.9035773 C37.4085,28.3101 36.7594091,23.5531909 36.7257955,18.7151455 C36.6945,14.2004864 34.6069773,11.0222591 30.5721818,9.18857727 C26.9963864,7.56237273 23.3104773,7.62380455 19.6894773,9.12366818 C16.6062955,10.4021455 14.6161364,12.7388727 13.7584091,15.9344864 C13.4361818,17.1387818 13.4779091,18.4520318 13.4338636,19.7177591 C13.3318636,22.6525773 13.0258636,25.5607364 12.4103864,28.4329636 C11.4263182,33.0194864 9.69695455,37.2826227 6.87920455,41.0658955 C6.44222727,41.6535545 5.96815909,42.2133955 5.46975,42.8393045 L44.7188864,42.8393045 Z M17.3202955,46.7199409 L16.7546591,46.7199409 C12.5158636,46.7199409 8.27822727,46.7234182 4.04059091,46.7187818 C2.10143182,46.7176227 0.612,45.6188045 0.0927272727,43.8511909 C-0.0834545455,43.2507818 -0.0417272727,42.8103273 0.49725,42.3397364 C4.98177273,38.4196909 7.45759091,33.3695318 8.65145455,27.6169636 C9.32025,24.3888955 9.6135,21.1225773 9.61697727,17.8284409 C9.61929545,14.3523273 11.0403409,11.4719864 13.3515682,8.97414545 C15.6732273,6.46471364 18.5837045,5.06800909 21.9160909,4.47803182 C22.0690909,4.45137273 22.2209318,4.41544091 22.4098636,4.37487273 C21.9334773,2.86341818 22.2452727,1.60348636 23.5735909,0.752713636 C24.5808409,0.108259091 25.6808182,0.124486364 26.673,0.800236364 C27.9398864,1.6626 28.2366136,2.89471364 27.7613864,4.36096364 C28.4950909,4.53019091 29.2032955,4.66116818 29.8929545,4.85821364 C34.7785227,6.25028182 38.1468409,9.31723636 39.9503864,14.0718273 C40.5542727,15.6655773 40.5368864,17.3497364 40.5797727,19.0281 C40.698,23.5891227 41.2508864,28.0875545 42.8863636,32.3819864 C44.3584091,36.2463955 46.5131591,39.6738273 49.7052955,42.3663955 C50.2280455,42.80685 50.2535455,43.2357136 50.1005455,43.7955545 C49.6160455,45.5701227 48.0790909,46.7164636 46.1445682,46.7187818 C41.9069318,46.7234182 37.6681364,46.7199409 33.4305,46.7199409 L32.8637045,46.7199409 C32.8532727,51.2902364 28.8972955,54.4962818 25.0444773,54.4765773 C21.3214773,54.4591909 17.3712955,51.3690545 17.3202955,46.7199409 L17.3202955,46.7199409 Z" id="Fill-1" fill="#69717A" sketch:type="MSShapeGroup" mask="url(#mask-2)"></path>
                </g>
            </g>
        </g>
    </g>
</svg>