<?xml version="1.0" encoding="UTF-8" standalone="no"?>
<svg width="54px" height="54px" viewBox="0 0 54 54" version="1.1" xmlns="http://www.w3.org/2000/svg" xmlns:xlink="http://www.w3.org/1999/xlink" xmlns:sketch="http://www.bohemiancoding.com/sketch/ns">
    <!-- Generator: Sketch 3.5.2 (25235) - http://www.bohemiancoding.com/sketch -->
    <title>Page 1 Copy</title>
    <desc>Created with Sketch.</desc>
    <defs>
        <path id="path-1" d="M0,0.22171875 L53.6371875,0.22171875 L53.6371875,53.28125 L0,53.28125"></path>
    </defs>
    <g id="Page-1" stroke="none" stroke-width="1" fill="none" fill-rule="evenodd" sketch:type="MSPage">
        <g id="System-1" sketch:type="MSArtboardGroup" transform="translate(-953.000000, -731.000000)">
            <g id="Group-12" sketch:type="MSLayerGroup" transform="translate(766.000000, 679.000000)">
                <g id="Page-1-Copy" transform="translate(187.000000, 52.000000)">
                    <path d="M26.6677313,27.7968281 C25.9826063,27.5338594 25.3295438,27.3310469 24.7186688,27.0405781 C17.0793563,23.3968281 9.43160625,19.7685469 1.82604375,16.0491719 C1.03798125,15.6641719 0.02716875,14.7412031 0.00185625,14.0347969 C-0.02176875,13.3387031 0.93335625,12.3143281 1.70116875,11.9276094 C9.03673125,8.22198437 16.4330438,4.64354687 23.7871688,0.975734375 C25.7868563,-0.022859375 27.6566063,-0.033171875 29.6613563,0.967140625 C37.0137938,4.63839062 44.4117938,8.21510937 51.7473563,11.9190156 C52.5168563,12.3074531 53.4821063,13.3180781 53.4635438,14.0176094 C53.4466688,14.7205781 52.4409188,15.6607344 51.6562313,16.0440156 C43.9949813,19.7891719 36.2915438,23.4432344 28.5914813,27.1076094 C27.9839813,27.3980781 27.3224813,27.5665156 26.6677313,27.7968281" id="Fill-1" fill="#69717A" sketch:type="MSShapeGroup"></path>
                    <g id="Group-5">
                        <mask id="mask-2" sketch:name="Clip 4" fill="white">
                            <use xlink:href="#path-1"></use>
                        </mask>
                        <g id="Clip-4"></g>
                        <path d="M26.6506875,40.5135156 C25.7124375,40.1869531 24.73875,39.9532031 23.8595625,39.5235156 C16.4716875,35.9141406 9.0855,32.2996094 1.744875,28.5939844 C0.968625,28.2021094 -0.0050625,27.2138281 1.06525896e-13,26.5091406 C0.0050625,25.8147656 1.0445625,24.9914844 1.7938125,24.4638281 C3.8863125,22.9925781 5.9315625,23.1730469 8.2198125,24.4036719 C13.3785,27.1777344 18.687375,29.6613281 23.911875,32.3082031 C25.8474375,33.2878906 27.6834375,33.2603906 29.61225,32.2841406 C35.22825,29.4413281 40.8695625,26.6535156 46.5024375,23.8485156 C48.252375,22.9788281 51.951375,23.8347656 53.14275,25.3713281 C54.131625,26.6500781 53.6101875,28.1041406 51.813,28.9635156 C47.2651875,31.1428906 42.7055625,33.2999219 38.1526875,35.4707031 C35.22825,36.8646094 32.3206875,38.2946094 29.379375,39.6489844 C28.5440625,40.0339844 27.6193125,40.2127344 26.6506875,40.5135156" id="Fill-3" fill="#69717A" sketch:type="MSShapeGroup" mask="url(#mask-2)"></path>
                    </g>
                    <path d="M26.721225,53.28125 C26.0411625,53.0303125 25.4421,52.8601562 24.8886,52.5954687 C17.18685,48.9259375 9.47835,45.2701562 1.813725,41.5232812 C1.02735,41.14 -0.076275,40.1070312 0.004725,39.524375 C0.1177875,38.7165625 1.1269125,37.9328125 1.9031625,37.3484375 C3.9619125,35.7998437 5.9362875,36.086875 8.2245375,37.2865625 C13.6279125,40.1173437 19.208475,42.590625 24.689475,45.2701562 C26.0985375,45.9576562 27.348975,45.9679687 28.7631,45.2770312 C34.746975,42.35 40.761225,39.4917187 46.7704125,36.61625 C48.3026625,35.8840625 52.3071,37.0132812 53.2656,38.4260937 C54.0401625,39.5673437 53.5440375,40.6948437 51.8616,41.5009375 C47.3137875,43.6785937 42.7541625,45.8339062 38.202975,48.0029687 C35.0541,49.5051562 31.91535,51.0245312 28.7614125,52.5129687 C28.0965375,52.8257812 27.382725,53.0354687 26.721225,53.28125" id="Fill-6" fill="#69717A" sketch:type="MSShapeGroup"></path>
                </g>
            </g>
        </g>
    </g>
</svg>