<?xml version="1.0" encoding="UTF-8" standalone="no"?>
<svg width="50px" height="54px" viewBox="0 0 50 54" version="1.1" xmlns="http://www.w3.org/2000/svg" xmlns:xlink="http://www.w3.org/1999/xlink" xmlns:sketch="http://www.bohemiancoding.com/sketch/ns">
    <!-- Generator: Sketch 3.5.2 (25235) - http://www.bohemiancoding.com/sketch -->
    <title>Page 1</title>
    <desc>Created with Sketch.</desc>
    <defs>
        <path id="path-1" d="M0,0.255841048 L49.9164475,0.255841048 L49.9164475,54.0010517 L0,54.0010517 L0,0.255841048 Z"></path>
    </defs>
    <g id="Page-1" stroke="none" stroke-width="1" fill="none" fill-rule="evenodd" sketch:type="MSPage">
        <g id="System-1" sketch:type="MSArtboardGroup" transform="translate(-1414.000000, -724.000000)">
            <g id="Group-13" sketch:type="MSLayerGroup" transform="translate(1225.000000, 679.000000)">
                <g id="Page-1" transform="translate(189.000000, 45.000000)">
                    <g id="Group-3">
                        <mask id="mask-2" sketch:name="Clip 2" fill="white">
                            <use xlink:href="#path-1"></use>
                        </mask>
                        <g id="Clip-2"></g>
                        <path d="M34.5623551,9.35678878 C34.5623551,10.7643572 34.555273,12.1710403 34.5650108,13.5786087 C34.5703224,14.2903603 34.9208866,14.6347276 35.6317529,14.6488918 C36.207174,14.6604003 36.7834803,14.6639413 37.3589013,14.6480066 C38.044095,14.6303013 38.397315,14.2868192 38.3999708,13.5989698 C38.4097087,10.7687835 38.4097087,7.93771196 38.3999708,5.1075257 C38.3982003,4.44977518 38.0432097,4.1107194 37.3792624,4.09212887 C36.8206613,4.07619414 36.2602898,4.08327624 35.7008035,4.08858782 C34.8978698,4.09655519 34.5650108,4.42852887 34.5623551,5.23146254 C34.558814,6.6062762 34.5614698,7.98197512 34.5623551,9.35678878 L34.5623551,9.35678878 Z M11.5331197,9.35236246 C11.5331197,10.7599309 11.5260376,12.1674993 11.5366607,13.5741824 C11.5419723,14.2912455 11.8889955,14.6347276 12.5989765,14.6488918 C13.1743976,14.6604003 13.7507039,14.663056 14.3252396,14.6480066 C15.0139744,14.6311866 15.3680796,14.2903603 15.3707354,13.6033961 C15.3804733,10.7732098 15.3804733,7.94213828 15.3716207,5.11195201 C15.3689649,4.45243097 15.0175154,4.11160466 14.3553386,4.09212887 C13.7958523,4.07530887 13.2354807,4.08327624 12.6759944,4.08858782 C11.8704049,4.09655519 11.5366607,4.42675834 11.5340049,5.22703622 C11.5295786,6.60184988 11.5331197,7.9775488 11.5331197,9.35236246 L11.5331197,9.35236246 Z M46.0451033,19.4806581 L3.88444614,19.4806581 L3.88444614,50.1328944 L46.0451033,50.1328944 L46.0451033,19.4806581 Z M7.69904502,7.93505617 L7.69904502,5.30493938 C7.69904502,2.29150364 9.73780603,0.255398416 12.7627502,0.261595258 C13.5603723,0.263365785 14.3686175,0.229725785 15.1547312,0.338613152 C17.4351691,0.654652093 19.1224806,2.56859101 19.1994985,4.88266886 C19.2331385,5.87239305 19.2056953,6.86388777 19.2056953,7.89521933 L30.7282804,7.89521933 C30.7282804,7.3507825 30.7132309,6.79749303 30.7318214,6.24420357 C30.7574941,5.47933622 30.7185425,4.69764886 30.868152,3.95491309 C31.2443888,2.08612259 32.8537972,0.552846832 34.7641951,0.351892099 C35.992055,0.22264368 37.270375,0.20847947 38.4858413,0.399696309 C40.6423423,0.737866829 42.2083728,2.78459521 42.2367012,5.04555728 C42.2482097,5.986592 42.2384718,6.92762672 42.2384718,7.93505617 L42.9227802,7.93505617 C43.9142749,7.93505617 44.9057696,7.92974459 45.8972643,7.93594143 C48.2467527,7.95099091 49.9075064,9.60820351 49.9119327,11.9638887 C49.9207853,16.3459413 49.9145885,20.7271086 49.9145885,25.1091611 L49.9145885,49.8159701 C49.9145885,52.348708 48.2839338,53.9829038 45.7511959,53.9829038 C31.9021393,53.983789 18.053968,53.9651985 4.20579666,54.000609 C1.75804407,54.0076911 -0.00894115773,52.1194248 -8.85263142e-05,49.7858712 C0.0477156833,37.2328399 0.0229283154,24.6798085 0.0229283154,12.1267771 C0.0229283154,9.55597298 1.6420746,7.9368267 4.21287877,7.93505617 L7.69904502,7.93505617 L7.69904502,7.93505617 Z" id="Fill-1" fill="#69717A" sketch:type="MSShapeGroup" mask="url(#mask-2)"></path>
                    </g>
                    <path d="M23.1068729,39.6255291 C23.2547119,39.4290007 23.3450087,39.2731943 23.4680603,39.1501428 C27.6695192,34.9424871 31.8745191,30.7383724 36.079519,26.5333725 C36.8204843,25.7932925 37.273739,25.795063 38.0200158,26.538684 C38.3254316,26.8440998 38.6352737,27.144204 38.9336074,27.4558167 C39.4966348,28.0409756 39.4966348,28.5429198 38.9247548,29.1201114 C37.9341453,30.1195735 36.9364538,31.1101829 35.941418,32.1052187 C31.9745538,36.0720828 28.0068044,40.0398322 24.039055,44.0066964 C23.2688761,44.7777606 22.8315561,44.7786458 22.0649182,44.0120079 C19.3746035,41.3216933 16.6842889,38.6322638 13.9939742,35.9410639 C13.2777963,35.224886 13.2795668,34.804386 13.99663,34.0846671 C14.3020457,33.7792513 14.6065763,33.4729502 14.9128773,33.169305 C15.5529226,32.5319155 16.0176857,32.5354566 16.6692394,33.1843545 C17.4615499,33.9740092 18.2520899,34.7654344 19.0435151,35.5568597 C20.3634425,36.8785575 21.6833698,38.2002554 23.1068729,39.6255291" id="Fill-4" fill="#69717A" sketch:type="MSShapeGroup"></path>
                </g>
            </g>
        </g>
    </g>
</svg>