<?xml version="1.0" encoding="UTF-8" standalone="no"?>
<svg width="16px" height="16px" viewBox="0 0 16 16" version="1.1" xmlns="http://www.w3.org/2000/svg" xmlns:xlink="http://www.w3.org/1999/xlink" xmlns:sketch="http://www.bohemiancoding.com/sketch/ns">
    <!-- Generator: Sketch 3.5.2 (25235) - http://www.bohemiancoding.com/sketch -->
    <title>search copy 2</title>
    <desc>Created with Sketch.</desc>
    <defs>
        <path id="path-1" d="M0,0.0565333333 L15.6821333,0.0565333333 L15.6821333,15.4666667 L0,15.4666667"></path>
        <path id="path-3" d="M0,0.0565333333 L15.6821333,0.0565333333 L15.6821333,15.4666667 L0,15.4666667 L0,0.0565333333 Z"></path>
    </defs>
    <g id="Page-1" stroke="none" stroke-width="1" fill="none" fill-rule="evenodd" sketch:type="MSPage">
        <g id="System-1" sketch:type="MSArtboardGroup" transform="translate(-32.000000, -122.000000)">
            <g id="search-copy-2" sketch:type="MSLayerGroup" transform="translate(32.000000, 122.000000)">
                <g id="Group-3">
                    <mask id="mask-2" sketch:name="Clip 2" fill="white">
                        <use xlink:href="#path-1"></use>
                    </mask>
                    <g id="Clip-2"></g>
                    <path d="M6.02501333,1.65642667 C3.58501333,1.65642667 1.59994667,3.64149333 1.59994667,6.08149333 C1.59994667,8.52149333 3.58501333,10.5070933 6.02501333,10.5070933 C8.46501333,10.5070933 10.45008,8.52149333 10.45008,6.08149333 C10.45008,3.64149333 8.46501333,1.65642667 6.02501333,1.65642667 M6.02501333,12.1070933 C2.70288,12.1070933 -5.33333333e-05,9.40362667 -5.33333333e-05,6.08149333 C-5.33333333e-05,2.75936 2.70288,0.0564266667 6.02501333,0.0564266667 C9.34714667,0.0564266667 12.05008,2.75936 12.05008,6.08149333 C12.05008,9.40362667 9.34714667,12.1070933 6.02501333,12.1070933" id="Fill-1" fill="#FFFFFF" sketch:type="MSShapeGroup" mask="url(#mask-2)"></path>
                </g>
                <g id="Group-6">
                    <mask id="mask-4" sketch:name="Clip 5" fill="white">
                        <use xlink:href="#path-3"></use>
                    </mask>
                    <g id="Clip-5"></g>
                    <path d="M15.68224,14.0515733 L14.2673067,15.4665067 L9.16170667,10.36144 L10.57664,8.94597333 L15.68224,14.0515733 Z" id="Fill-4" fill="#FFFFFF" sketch:type="MSShapeGroup" mask="url(#mask-4)"></path>
                </g>
            </g>
        </g>
    </g>
</svg>