<?xml version="1.0" encoding="UTF-8" standalone="no"?>
<svg width="46px" height="45px" viewBox="0 0 46 45" version="1.1" xmlns="http://www.w3.org/2000/svg" xmlns:xlink="http://www.w3.org/1999/xlink" xmlns:sketch="http://www.bohemiancoding.com/sketch/ns">
    <!-- Generator: Sketch 3.5.2 (25235) - http://www.bohemiancoding.com/sketch -->
    <title>Group 3 + Group 6</title>
    <desc>Created with Sketch.</desc>
    <defs>
        <path id="path-1" d="M0,0.164572508 L45.6517927,0.164572508 L45.6517927,45.024554 L0,45.024554"></path>
        <path id="path-3" d="M0,0.164572508 L45.6517927,0.164572508 L45.6517927,45.024554 L0,45.024554 L0,0.164572508 Z"></path>
    </defs>
    <g id="Page-1" stroke="none" stroke-width="1" fill="none" fill-rule="evenodd" sketch:type="MSPage">
        <g id="System-1" sketch:type="MSArtboardGroup" transform="translate(-494.000000, -1010.000000)">
            <g id="Group-14" sketch:type="MSLayerGroup" transform="translate(307.000000, 956.000000)">
                <g id="Group-3-+-Group-6" transform="translate(187.000000, 54.000000)">
                    <g id="Group-3">
                        <mask id="mask-2" sketch:name="Clip 2" fill="white">
                            <use xlink:href="#path-1"></use>
                        </mask>
                        <g id="Clip-2"></g>
                        <path d="M17.5392374,4.82197448 C10.4362259,4.82197448 4.65755723,10.6006431 4.65755723,17.7036546 C4.65755723,24.8066662 10.4362259,30.5868874 17.5392374,30.5868874 C24.6422489,30.5868874 30.4209176,24.8066662 30.4209176,17.7036546 C30.4209176,10.6006431 24.6422489,4.82197448 17.5392374,4.82197448 M17.5392374,35.2445999 C7.8682737,35.2445999 -0.000155257083,27.3746183 -0.000155257083,17.7036546 C-0.000155257083,8.03269095 7.8682737,0.164261994 17.5392374,0.164261994 C27.2102011,0.164261994 35.0786301,8.03269095 35.0786301,17.7036546 C35.0786301,27.3746183 27.2102011,35.2445999 17.5392374,35.2445999" id="Fill-1" fill="#69717A" sketch:type="MSShapeGroup" mask="url(#mask-2)"></path>
                    </g>
                    <g id="Group-6">
                        <mask id="mask-4" sketch:name="Clip 5" fill="white">
                            <use xlink:href="#path-3"></use>
                        </mask>
                        <g id="Clip-5"></g>
                        <path d="M45.6521032,40.9051179 L41.5331328,45.0240883 L26.6703722,30.1628803 L30.7893426,26.0423573 L45.6521032,40.9051179 Z" id="Fill-4" fill="#69717A" sketch:type="MSShapeGroup" mask="url(#mask-4)"></path>
                    </g>
                </g>
            </g>
        </g>
    </g>
</svg>