<?xml version="1.0" encoding="UTF-8" standalone="no"?>
<svg width="54px" height="55px" viewBox="0 0 54 55" version="1.1" xmlns="http://www.w3.org/2000/svg" xmlns:xlink="http://www.w3.org/1999/xlink" xmlns:sketch="http://www.bohemiancoding.com/sketch/ns">
    <!-- Generator: Sketch 3.5.2 (25235) - http://www.bohemiancoding.com/sketch -->
    <title>Page 1</title>
    <desc>Created with Sketch.</desc>
    <defs>
        <path id="path-1" d="M0,0.738 L53.2632,0.738 L53.2632,54 L0,54 L0,0.738 Z"></path>
    </defs>
    <g id="Page-1" stroke="none" stroke-width="1" fill="none" fill-rule="evenodd" sketch:type="MSPage">
        <g id="System-1" sketch:type="MSArtboardGroup" transform="translate(-946.000000, -1000.000000)">
            <g id="Group-11" sketch:type="MSLayerGroup" transform="translate(766.000000, 956.000000)">
                <g id="Page-1" transform="translate(180.000000, 44.157895)">
                    <mask id="mask-2" sketch:name="Clip 2" fill="white">
                        <use xlink:href="#path-1"></use>
                    </mask>
                    <g id="Clip-2"></g>
                    <path d="M34.2198,18.7248 L25.5966,27.348 L34.2198,27.348 L34.2198,18.7248 Z M6.5058,15.9264 L15.1878,15.9264 L15.1878,7.2456 C12.2958,10.1364 9.3906,13.0428 6.5058,15.9264 L6.5058,15.9264 Z M3.8226,38.7552 L19.0266,38.7552 L19.0266,38.1552 C19.0266,35.9052 19.0038,33.654 19.0326,31.404 C19.059,29.3892 19.761,27.6228 21.189,26.1864 C24.1482,23.2068 27.1218,20.2416 30.099,17.28 C30.3414,17.0376 30.4494,16.8012 30.4482,16.4532 C30.435,12.6336 30.4398,8.8152 30.4398,4.9956 L30.4398,4.5684 L19.0218,4.5684 L19.0218,5.0604 C19.0218,8.8788 19.023,12.6984 19.0218,16.518 C19.0218,18.6432 17.8974,19.758 15.7578,19.758 L4.395,19.758 L3.8226,19.758 L3.8226,38.7552 Z M49.443,15.9876 L38.0454,15.9876 L38.0454,16.4436 C38.0454,20.2632 38.0442,24.084 38.0454,27.9036 C38.0466,30.06 36.9318,31.1724 34.7598,31.1724 L23.3958,31.1724 L22.8666,31.1724 L22.8666,50.1756 L49.443,50.1756 L49.443,15.9876 Z M19.0266,42.5856 L18.4062,42.5856 L3.2358,42.5856 C1.1286,42.5856 0.0042,41.4636 0.0042,39.36 C0.003,32.9088 -0.0078,26.4576 0.0102,20.0052 C0.015,17.9688 0.7518,16.194 2.1906,14.748 C6.1254,10.7928 10.071,6.846 14.0274,2.9124 C15.4614,1.4868 17.2278,0.7644 19.245,0.7524 C23.2086,0.7272 27.171,0.7428 31.1346,0.7452 C33.0738,0.7464 34.2378,1.9128 34.2402,3.8568 C34.2426,6.8208 34.2402,9.7848 34.2402,12.75 L34.2402,13.314 C34.7202,13.0932 35.1426,12.8904 35.571,12.7032 C36.4854,12.3048 37.4478,12.1548 38.4414,12.156 C42.3258,12.1608 46.209,12.1584 50.0922,12.1584 C52.125,12.1596 53.2626,13.302 53.2626,15.3492 C53.2638,27.1896 53.2638,39.0312 53.2626,50.8728 C53.2626,52.8408 52.0998,53.9988 50.1258,53.9988 C40.8054,54 31.4838,54 22.1634,53.9988 C20.187,53.9988 19.0278,52.8444 19.0266,50.8752 C19.0254,48.2904 19.0266,45.7068 19.0266,43.1232 L19.0266,42.5856 L19.0266,42.5856 Z" id="Fill-1" fill="#69717A" sketch:type="MSShapeGroup" mask="url(#mask-2)"></path>
                </g>
            </g>
        </g>
    </g>
</svg>