<?xml version="1.0" encoding="UTF-8" standalone="no"?>
<svg width="54px" height="51px" viewBox="0 0 54 51" version="1.1" xmlns="http://www.w3.org/2000/svg" xmlns:xlink="http://www.w3.org/1999/xlink" xmlns:sketch="http://www.bohemiancoding.com/sketch/ns">
    <!-- Generator: Sketch 3.5.2 (25235) - http://www.bohemiancoding.com/sketch -->
    <title>Page 1</title>
    <desc>Created with Sketch.</desc>
    <defs>
        <path id="path-1" d="M0,0.599684211 L53.1407368,0.599684211 L53.1407368,50.2105263 L0,50.2105263"></path>
        <path id="path-3" d="M0,0.599684211 L53.1407368,0.599684211 L53.1407368,50.2105263 L0,50.2105263"></path>
        <path id="path-5" d="M0,0.599684211 L53.1407368,0.599684211 L53.1407368,50.2105263 L0,50.2105263"></path>
    </defs>
    <g id="Page-1" stroke="none" stroke-width="1" fill="none" fill-rule="evenodd" sketch:type="MSPage">
        <g id="System-1" sketch:type="MSArtboardGroup" transform="translate(-494.000000, -1279.000000)">
            <g id="Group-4" sketch:type="MSLayerGroup" transform="translate(307.000000, 1232.000000)">
                <g id="Page-1" transform="translate(187.000000, 47.000000)">
                    <g id="Group-3">
                        <mask id="mask-2" sketch:name="Clip 2" fill="white">
                            <use xlink:href="#path-1"></use>
                        </mask>
                        <g id="Clip-2"></g>
                        <path d="M26.5499053,50.1912947 C22.3435895,50.1912947 18.1353789,50.2462421 13.9300105,50.1714 C11.3740105,50.1259263 9.26801053,49.0847684 7.95022105,46.7769789 C7.29748421,45.6335053 7.07864211,44.3725579 7.07485263,43.0727684 C7.06727368,40.1378211 7.35811579,37.2398211 8.22116842,34.4223474 C8.87485263,32.2898211 9.84590526,30.3297158 11.6051684,28.8764526 C13.0375895,27.6931895 14.7324316,27.1939263 16.5712737,27.1958211 C16.8431684,27.1958211 17.1368526,27.3549789 17.3822211,27.5046632 C18.1240105,27.9594 18.8506421,28.4387684 19.5763263,28.9190842 C23.7949579,31.7071895 29.3541158,31.7024526 33.5680105,28.9048737 C34.0720105,28.5704526 34.6120105,28.2805579 35.0781158,27.8997158 C35.9705368,27.1683474 36.9501158,27.1001368 38.0320105,27.3047684 C40.6638,27.8030842 42.4836947,29.3321368 43.7455895,31.6342421 C44.8180105,33.5924526 45.3996947,35.7098211 45.6640105,37.8972947 C45.8904316,39.7664526 46.0296947,41.6592947 46.0135895,43.5398211 C45.9823263,47.1341368 43.4064316,49.8123474 39.8301158,50.1278211 C39.2730632,50.1770842 38.7112737,50.2036105 38.1523263,50.2045579 C34.2851684,50.2111895 30.4170632,50.2074 26.5499053,50.2074 L26.5499053,50.1912947" id="Fill-1" fill="#69717A" sketch:type="MSShapeGroup" mask="url(#mask-2)"></path>
                    </g>
                    <path d="M26.3677263,28.9398316 C20.4968842,28.8915158 15.8140421,23.8714105 15.9210947,18.1095158 C16.0300421,12.2500421 21.0312,7.53972632 26.8253053,7.67709474 C32.5568842,7.81351579 37.3126737,12.7009895 37.2037263,18.5007789 C37.0928842,24.3640421 32.1305684,29.1132 26.3677263,28.9398316" id="Fill-4" fill="#69717A" sketch:type="MSShapeGroup"></path>
                    <path d="M36.7610211,25.3541368 C38.5733368,22.6711895 39.2620737,19.7523474 38.8471263,16.5407684 C39.5169158,16.6932947 40.1241789,16.8505579 40.7390211,16.9670842 C42.7758632,17.3526632 44.7312316,17.0267684 46.6155474,16.2234 C47.3867053,15.8937158 48.1436526,15.5261368 48.8892316,15.1424526 C49.9284947,14.6071895 50.8067053,14.7275053 51.4594421,15.7061368 C51.9075474,16.3797158 52.2722842,17.1546632 52.4816526,17.9352947 C53.0908105,20.2023474 53.2063895,22.5376105 53.1107053,24.8700316 C53.0254421,26.9305579 51.6688105,28.3383474 49.4055474,28.7523474 C48.4998632,28.9181368 47.5591263,28.9039263 46.6326,28.9380316 C45.8813368,28.9655053 45.1281789,28.9550842 44.3759684,28.9342421 C44.2063895,28.9295053 43.9884947,28.8546632 43.8814421,28.7334 C42.0283895,26.6245579 39.6855474,25.5530842 36.9002842,25.4015053 C36.8737579,25.4005579 36.8472316,25.3844526 36.7610211,25.3541368" id="Fill-6" fill="#69717A" sketch:type="MSShapeGroup"></path>
                    <g id="Group-10">
                        <mask id="mask-4" sketch:name="Clip 9" fill="white">
                            <use xlink:href="#path-3"></use>
                        </mask>
                        <g id="Clip-9"></g>
                        <path d="M14.2818632,16.5040105 C14.0781789,18.1145368 14.1274421,19.6369579 14.4827053,21.1432737 C14.8389158,22.6514842 15.4764947,24.0346421 16.3603895,25.3458 C15.6934421,25.4490632 15.0587053,25.5210632 14.4343895,25.6480105 C12.4146,26.0582211 10.7377579,27.0747474 9.3726,28.6056947 C9.15754737,28.8472737 8.95102105,28.9609579 8.62133684,28.9505368 C7.16238947,28.9069579 5.69870526,28.9476947 4.24449474,28.8444316 C3.01102105,28.7553789 1.90165263,28.2561158 1.01775789,27.3580105 C0.368810526,26.6995895 0.0372315789,25.8687474 0.0154421053,24.9630632 C-0.0451894737,22.4070632 0.0429157895,19.8586421 0.795126316,17.3860105 C1.03291579,16.6044316 1.37207368,15.8645368 2.01154737,15.3160105 C2.70881053,14.7182211 3.31512632,14.6462211 4.11281053,15.0848526 C5.47417895,15.8332737 6.88196842,16.4632737 8.39302105,16.8460105 C10.1532316,17.2912737 11.9001789,17.1719053 13.6357579,16.6982211 C13.8186,16.6480105 13.9986,16.5892737 14.2818632,16.5040105" id="Fill-8" fill="#69717A" sketch:type="MSShapeGroup" mask="url(#mask-4)"></path>
                    </g>
                    <path d="M10.6155474,14.7668211 C6.68965263,14.7677684 3.53586316,11.6111368 3.52828421,7.67292632 C3.52070526,3.75745263 6.7086,0.584715789 10.6354421,0.599873684 C14.5528105,0.615031579 17.7047053,3.76882105 17.7009158,7.67008421 C17.6971263,11.6064 14.5423895,14.7658737 10.6155474,14.7668211" id="Fill-11" fill="#69717A" sketch:type="MSShapeGroup"></path>
                    <g id="Group-15">
                        <mask id="mask-6" sketch:name="Clip 14" fill="white">
                            <use xlink:href="#path-5"></use>
                        </mask>
                        <g id="Clip-14"></g>
                        <path d="M42.5139158,14.7668211 C38.5880211,14.7696632 35.4313895,11.6111368 35.4247579,7.67482105 C35.4190737,3.77261053 38.5690737,0.615978947 42.4854947,0.598926316 C46.4123368,0.582821053 49.5983368,3.74892632 49.5973895,7.66724211 C49.5964421,11.6016632 46.4407579,14.7639789 42.5139158,14.7668211" id="Fill-13" fill="#69717A" sketch:type="MSShapeGroup" mask="url(#mask-6)"></path>
                    </g>
                </g>
            </g>
        </g>
    </g>
</svg>