<?xml version="1.0" encoding="UTF-8" standalone="no"?>
<svg width="48px" height="43px" viewBox="0 0 48 43" version="1.1" xmlns="http://www.w3.org/2000/svg" xmlns:xlink="http://www.w3.org/1999/xlink" xmlns:sketch="http://www.bohemiancoding.com/sketch/ns">
    <!-- Generator: Sketch 3.5.2 (25235) - http://www.bohemiancoding.com/sketch -->
    <title>Page 1</title>
    <desc>Created with Sketch.</desc>
    <defs>
        <path id="path-1" d="M0,0.754526316 L47.7178947,0.754526316 L47.7178947,42.1052632 L0,42.1052632 L0,0.754526316 Z"></path>
    </defs>
    <g id="Page-1" stroke="none" stroke-width="1" fill="none" fill-rule="evenodd" sketch:type="MSPage">
        <g id="System-1" sketch:type="MSArtboardGroup" transform="translate(-1412.000000, -1282.000000)">
            <g id="Group" sketch:type="MSLayerGroup" transform="translate(1225.000000, 1232.000000)">
                <g id="Page-1" transform="translate(187.000000, 50.000000)">
                    <mask id="mask-2" sketch:name="Clip 2" fill="white">
                        <use xlink:href="#path-1"></use>
                    </mask>
                    <g id="Clip-2"></g>
                    <path d="M23.8843789,3.92842105 L4.32143158,3.92842105 C3.41364211,3.92842105 3.17785263,4.16842105 3.17785263,5.08884211 L3.17785263,25.0096842 C3.17785263,25.9764211 3.40606316,26.2063158 4.36943158,26.2063158 L43.3757474,26.2063158 C44.3037474,26.2063158 44.5395368,25.9654737 44.5395368,25.0214737 L44.5395368,5.06105263 C44.5395368,4.17684211 44.2919579,3.92842105 43.4077474,3.92842105 L23.8843789,3.92842105 L23.8843789,3.92842105 Z M30.2229053,35.7423158 C30.2296421,36.9162105 30.6944842,37.8997895 31.1441684,38.8867368 C31.3083789,39.248 31.4768,39.6084211 31.6578526,39.9612632 C32.1445895,40.9094737 31.3269053,42.0067368 30.3812211,42.0917895 C30.2624842,42.1027368 30.1429053,42.1044211 30.0241684,42.1044211 C25.9155368,42.1052632 21.8069053,42.1061053 17.6982737,42.1044211 C16.7820632,42.1044211 16.1824842,41.6690526 15.9593263,40.8884211 C15.8346947,40.4522105 15.9955368,40.0825263 16.1631158,39.7061053 C16.5134316,38.9212632 16.9016421,38.1507368 17.2048,37.3482105 C17.3883789,36.8614737 17.4431158,36.3267368 17.5719579,35.7423158 L17.0220632,35.7423158 L4.17911579,35.7423158 C1.70416842,35.7423158 -0.000252631579,34.0446316 -0.000252631579,31.5806316 C-0.000252631579,22.7006316 -0.000252631579,13.8197895 0.000589473684,4.93978947 C0.000589473684,2.44210526 1.69153684,0.754526316 4.19427368,0.754526316 L43.5576421,0.754526316 C46.0081684,0.754526316 47.7159579,2.45052632 47.7168,4.896 C47.7184842,13.8155789 47.7184842,22.7351579 47.7168,31.6555789 C47.7159579,34.0143158 45.9845895,35.7406316 43.6216421,35.7414737 C39.3277474,35.744 35.0330105,35.7423158 30.7391158,35.7423158 L30.2229053,35.7423158 Z" id="Fill-1" fill="#69717A" sketch:type="MSShapeGroup" mask="url(#mask-2)"></path>
                </g>
            </g>
        </g>
    </g>
</svg>