<?xml version="1.0" encoding="UTF-8" standalone="no"?>
<svg width="54px" height="47px" viewBox="0 0 54 47" version="1.1" xmlns="http://www.w3.org/2000/svg" xmlns:xlink="http://www.w3.org/1999/xlink" xmlns:sketch="http://www.bohemiancoding.com/sketch/ns">
    <!-- Generator: Sketch 3.5.2 (25235) - http://www.bohemiancoding.com/sketch -->
    <title>Page 1</title>
    <desc>Created with Sketch.</desc>
    <defs>
        <path id="path-1" d="M0,0.916 L56,0.916 L56,49 L0,49"></path>
    </defs>
    <g id="Page-1" stroke="none" stroke-width="1" fill="none" fill-rule="evenodd" sketch:type="MSPage">
        <g id="System-1" sketch:type="MSArtboardGroup" transform="translate(-952.000000, -1279.000000)">
            <g id="Page-1" sketch:type="MSLayerGroup" transform="translate(952.000000, 1279.000000)">
                <mask id="mask-2" sketch:name="Clip 2" fill="white">
                    <use xlink:href="#path-1"></use>
                </mask>
                <g id="Clip-2"></g>
                <path d="M42.4552949,20.1158291 C42.4052963,17.9328222 40.6666324,16.227222 38.5360434,16.2715757 C36.3627137,16.3167358 34.6804999,18.0949147 34.7393694,20.2851795 C34.7942066,22.334319 36.5949656,24.0350806 38.657008,23.9883077 C40.7706619,23.9399218 42.5028743,22.1738394 42.4552949,20.1158291 M30.8862452,20.1763114 C30.8725358,17.9949173 29.1685485,16.2699628 27.0266695,16.2699628 C24.8662426,16.2707692 23.1509653,18.027981 23.1687067,20.2246972 C23.1848353,22.2673853 24.9501114,23.9899205 27.0266695,23.9891141 C29.1233884,23.9891141 30.8983416,22.2359345 30.8862452,20.1763114 M15.4721355,16.2699628 C13.3334822,16.2594792 11.6133663,17.9876594 11.5988505,20.1617957 C11.5843348,22.2286766 13.3391272,23.9770176 15.4414911,23.9899205 C17.5132107,24.0028234 19.2938089,22.2794818 19.3155825,20.2400194 C19.3397754,18.0424967 17.6341752,16.2812528 15.4721355,16.2699628 M27.745199,0.932463997 C32.5531367,0.950205465 37.1828533,1.86550391 41.5738666,3.86303188 C45.3648956,5.5879864 48.6107778,8.00163243 51.1163569,11.3781563 C54.7227134,16.2377056 54.9759325,22.8851109 51.7082768,27.9777186 C49.4309175,31.5260121 46.2753555,34.0598163 42.547228,35.9283154 C39.2602179,37.5750462 35.7780517,38.5919548 32.1370186,39.0677487 C28.5346943,39.5387041 24.9323699,39.5467684 21.3413356,38.9532356 C20.8719931,38.8750119 20.5445824,38.9612999 20.1905594,39.296775 C15.9817995,43.2821538 10.9085461,45.3941948 5.21434144,46.1304657 C4.98450879,46.1603037 4.72483822,46.1409493 4.50871489,46.0611127 C3.93373005,45.8506344 3.75550894,45.2700046 4.12082189,44.7853399 C4.34017095,44.4934121 4.60226081,44.2184194 4.89015644,43.9942317 C7.70782408,41.7942898 8.94811396,38.7863046 9.39487637,35.348492 C9.45374579,34.8976974 9.3424584,34.6727033 8.96988758,34.4331935 C5.90545225,32.4638906 3.3345523,29.9994395 1.6789508,26.7156551 C-0.755662427,21.8867502 -0.519378335,17.1038118 2.23538774,12.4829659 C4.36113813,8.91773731 7.48202358,6.4065132 11.1327338,4.52430477 C15.3922989,2.32839493 19.9365339,1.18084454 24.7130208,0.940528301 C25.7210588,0.889723189 26.7339353,0.932463997 27.745199,0.932463997" id="Fill-1" fill="#69717A" sketch:type="MSShapeGroup" mask="url(#mask-2)"></path>
            </g>
        </g>
    </g>
</svg>