<?xml version="1.0" encoding="UTF-8" standalone="no"?>
<svg width="18px" height="18px" viewBox="0 0 18 18" version="1.1" xmlns="http://www.w3.org/2000/svg" xmlns:xlink="http://www.w3.org/1999/xlink">
    <!-- Generator: Sketch 3.6.1 (26313) - http://www.bohemiancoding.com/sketch -->
    <title>Delete Icon Copy</title>
    <desc>Created with Sketch.</desc>
    <defs></defs>
    <g id="Page-1" stroke="none" stroke-width="1" fill="none" fill-rule="evenodd">
        <g id="Clerks-List-New-Clerk-1" transform="translate(-1060.000000, -134.000000)" stroke="#FFFFFF" fill="#FFFFFF">
            <g id="Group-13" transform="translate(621.000000, 135.000000)">
                <path d="M449.572587,7.75169674 L455.862937,1.46134746 C456.045688,1.27859626 456.045688,0.98195663 455.862937,0.79920543 L455.200795,0.1370634 C455.018043,-0.0456878 454.721404,-0.0456878 454.538653,0.1370634 L448.248303,6.42741268 C448.065552,6.61016388 447.768912,6.61016388 447.586161,6.42741268 L441.461347,0.302598907 C441.278596,0.119847707 440.981957,0.119847707 440.799205,0.302598907 L440.137063,0.964740937 C439.954312,1.14749214 439.954312,1.44413177 440.137063,1.62688297 L446.261877,7.75169674 C446.444628,7.93444794 446.444628,8.23108757 446.261877,8.41383877 L440.302599,14.373117 C440.119848,14.5558682 440.119848,14.8525079 440.302599,15.0352591 L440.964741,15.6974011 C441.147492,15.8801523 441.444132,15.8801523 441.626883,15.6974011 L447.586161,9.73812283 C447.768912,9.55537163 448.065552,9.55537163 448.248303,9.73812283 L454.373117,15.8629366 C454.555868,16.0456878 454.852508,16.0456878 455.035259,15.8629366 L455.697401,15.2007946 C455.880152,15.0180434 455.880152,14.7214037 455.697401,14.5386525 L449.572587,8.41383877 C449.389836,8.23108757 449.389836,7.93444794 449.572587,7.75169674 Z" id="Delete-Icon-Copy"></path>
            </g>
        </g>
    </g>
</svg>