<?xml version="1.0" encoding="UTF-8" standalone="no"?>
<svg width="16px" height="16px" viewBox="0 0 16 16" version="1.1" xmlns="http://www.w3.org/2000/svg" xmlns:xlink="http://www.w3.org/1999/xlink">
    <!-- Generator: Sketch 3.7.2 (28276) - http://www.bohemiancoding.com/sketch -->
    <title>Group 4</title>
    <desc>Created with Sketch.</desc>
    <defs></defs>
    <g id="Page-1" stroke="none" stroke-width="1" fill="none" fill-rule="evenodd">
        <g id="Clerks-Card-Groups-Search" transform="translate(-1630.000000, -44.000000)">
            <g id="Group-4" transform="translate(1630.000000, 44.000000)">
                <circle id="Oval-57" fill="#53688E" cx="8" cy="8" r="8"></circle>
                <path d="M8.73387408,7.88412514 L11.6693704,4.94862881 C11.7546543,4.86334492 11.7546543,4.72491309 11.6693704,4.6396292 L11.3603708,4.33062959 C11.2750869,4.24534569 11.1366551,4.24534569 11.0513712,4.33062959 L8.11587486,7.26612592 C8.03059096,7.35140981 7.89215913,7.35140981 7.80687524,7.26612592 L4.94862881,4.40787949 C4.86334492,4.3225956 4.72491309,4.3225956 4.6396292,4.40787949 L4.33062959,4.7168791 C4.24534569,4.802163 4.24534569,4.94059482 4.33062959,5.02587872 L7.18887601,7.88412514 C7.27415991,7.96940904 7.27415991,8.10784087 7.18887601,8.19312476 L4.40787949,10.9741213 C4.3225956,11.0594052 4.3225956,11.197837 4.40787949,11.2831209 L4.7168791,11.5921205 C4.802163,11.6774044 4.94059482,11.6774044 5.02587872,11.5921205 L7.80687524,8.81112399 C7.89215913,8.72584009 8.03059096,8.72584009 8.11587486,8.81112399 L10.9741213,11.6693704 C11.0594052,11.7546543 11.197837,11.7546543 11.2831209,11.6693704 L11.5921205,11.3603708 C11.6774044,11.2750869 11.6774044,11.1366551 11.5921205,11.0513712 L8.73387408,8.19312476 C8.64859019,8.10784087 8.64859019,7.96940904 8.73387408,7.88412514 Z" id="Delete-Icon-Copy" stroke="#FFFFFF" stroke-width="0.5" fill="#FFFFFF"></path>
            </g>
        </g>
    </g>
</svg>