<?xml version="1.0" encoding="UTF-8" standalone="no"?>
<svg width="12px" height="12px" viewBox="0 0 12 12" version="1.1" xmlns="http://www.w3.org/2000/svg" xmlns:xlink="http://www.w3.org/1999/xlink">
    <!-- Generator: Sketch 3.7.2 (28276) - http://www.bohemiancoding.com/sketch -->
    <title>Delete Icon Copy</title>
    <desc>Created with Sketch.</desc>
    <defs></defs>
    <g id="Page-1" stroke="none" stroke-width="1" fill="none" fill-rule="evenodd">
        <g id="Clerks-List-Name-Confirm" transform="translate(-1654.000000, -115.000000)" stroke="#FFFFFF" stroke-width="0.5" fill="#FFFFFF">
            <g id="Group-5" transform="translate(280.000000, 100.000000)">
                <path d="M1380.84782,20.5959582 L1385.17244,16.271343 C1385.29808,16.1457016 1385.29808,15.9417618 1385.17244,15.8161204 L1384.71721,15.3608978 C1384.59157,15.2352563 1384.38763,15.2352563 1384.26199,15.3608978 L1379.93738,19.6855129 C1379.81173,19.8111543 1379.60779,19.8111543 1379.48215,19.6855129 L1375.27134,15.4747034 C1375.1457,15.349062 1374.94176,15.349062 1374.81612,15.4747034 L1374.3609,15.9299261 C1374.23526,16.0555675 1374.23526,16.2595073 1374.3609,16.3851487 L1378.57171,20.5959582 C1378.69735,20.7215996 1378.69735,20.9255394 1378.57171,21.0511808 L1374.4747,25.1481846 C1374.34906,25.2738261 1374.34906,25.4777658 1374.4747,25.6034073 L1374.92993,26.0586299 C1375.05557,26.1842714 1375.25951,26.1842714 1375.38515,26.0586299 L1379.48215,21.9616261 C1379.60779,21.8359847 1379.81173,21.8359847 1379.93738,21.9616261 L1384.14818,26.1724356 C1384.27383,26.298077 1384.47777,26.298077 1384.60341,26.1724356 L1385.05863,25.7172129 C1385.18427,25.5915715 1385.18427,25.3876317 1385.05863,25.2619903 L1380.84782,21.0511808 C1380.72218,20.9255394 1380.72218,20.7215996 1380.84782,20.5959582 Z" id="Delete-Icon-Copy"></path>
            </g>
        </g>
    </g>
</svg>